<?xml version="1.0" encoding="utf-8"?>
<!-- Generated by IcoMoon.io -->
<svg version="1.1" xmlns="http://www.w3.org/2000/svg" xmlns:xlink="http://www.w3.org/1999/xlink" width="560" height="56" viewBox="0 0 560 56">
<svg id="icon-add-solid" width="20" height="20" viewBox="0 0 20 20" x="0" y="0">
<path d="M11 9v-4h-2v4h-4v2h4v4h2v-4h4v-2h-4zM10 20c-5.523 0-10-4.477-10-10s4.477-10 10-10v0c5.523 0 10 4.477 10 10s-4.477 10-10 10v0z"></path>
</svg>
<svg id="icon-attachment" width="20" height="20" viewBox="0 0 20 20" x="36" y="0">
<path d="M15 3h-8c-3.866 0-7 3.134-7 7s3.134 7 7 7v0h8v-2h-8c-2.761 0-5-2.239-5-5s2.239-5 5-5v0h8c1.657 0 3 1.343 3 3s-1.343 3-3 3v0h-8c-0.552 0-1-0.448-1-1s0.448-1 1-1v0h8v-2h-8c-1.657 0-3 1.343-3 3s1.343 3 3 3v0h8c2.761 0 5-2.239 5-5s-2.239-5-5-5v0z"></path>
</svg>
<svg id="icon-bluetooth" width="20" height="20" viewBox="0 0 20 20" x="72" y="0">
<path d="M9.41 0l6 6-4 4 4 4-6 6h-0.41v-7.59l-3.3 3.3-1.4-1.42 4.28-4.29-4.3-4.3 1.42-1.4 3.3 3.28v-7.58h0.41zM11 4.41v3.19l1.59-1.6-1.59-1.59zM12.59 14l-1.59-1.59v3.18l1.59-1.59z"></path>
</svg>
<svg id="icon-camera" width="20" height="20" viewBox="0 0 20 20" x="108" y="0">
<path d="M0 6c0-1.1 0.9-2 2-2h3l2-2h6l2 2h3c1.105 0 2 0.895 2 2v0 10c0 1.105-0.895 2-2 2v0h-16c-1.105 0-2-0.895-2-2v0-10zM10 16c2.761 0 5-2.239 5-5s-2.239-5-5-5v0c-2.761 0-5 2.239-5 5s2.239 5 5 5v0zM10 14c-1.657 0-3-1.343-3-3s1.343-3 3-3v0c1.657 0 3 1.343 3 3s-1.343 3-3 3v0z"></path>
</svg>
<svg id="icon-chart" width="20" height="20" viewBox="0 0 20 20" x="144" y="0">
<path d="M4.13 12h-0.13c-1.101 0.005-1.991 0.899-1.991 2 0 1.105 0.895 2 2 2s2-0.895 2-2c0-0.324-0.077-0.631-0.214-0.901l0.005 0.011 2.060-3.11c0.033 0.002 0.072 0.003 0.11 0.003 0.192 0 0.378-0.027 0.554-0.076l-0.014 0.003 1.55 1.55c-0.044 0.157-0.070 0.337-0.070 0.523 0 1.105 0.895 2 2 2s2-0.895 2-2c0-0.325-0.078-0.633-0.216-0.904l0.005 0.011 2.090-3.11h0.13c1.101-0.005 1.991-0.899 1.991-2 0-1.105-0.895-2-2-2s-2 0.895-2 2c0 0.324 0.077 0.631 0.214 0.901l-0.005-0.011-2.060 3.11c-0.033-0.002-0.072-0.003-0.11-0.003-0.192 0-0.378 0.027-0.554 0.076l0.014-0.003-1.56-1.55c0.044-0.157 0.070-0.337 0.070-0.523 0-1.105-0.895-2-2-2s-2 0.895-2 2c0 0.325 0.078 0.633 0.216 0.904l-0.005-0.011-2.080 3.11zM0 4c0-1.1 0.9-2 2-2h16c1.105 0 2 0.895 2 2v0 12c0 1.105-0.895 2-2 2v0h-16c-1.105 0-2-0.895-2-2v0-12z"></path>
</svg>
<svg id="icon-chat-bubble-dots" width="20" height="20" viewBox="0 0 20 20" x="180" y="0">
<path d="M10 15l-4 4v-4h-4c-1.105 0-2-0.895-2-2v0-10c0-1.1 0.9-2 2-2h16c1.105 0 2 0.895 2 2v0 10c0 1.105-0.895 2-2 2v0h-8zM5 7v2h2v-2h-2zM9 7v2h2v-2h-2zM13 7v2h2v-2h-2z"></path>
</svg>
<svg id="icon-checkmark" width="20" height="20" viewBox="0 0 20 20" x="216" y="0">
<path d="M0 11l2-2 5 5 11-11 2 2-13 13z"></path>
</svg>
<svg id="icon-conversation" width="20" height="20" viewBox="0 0 20 20" x="252" y="0">
<path d="M17 11v3l-3-3h-6c-1.105 0-2-0.895-2-2v0-7c0-1.1 0.9-2 2-2h10c1.105 0 2 0.895 2 2v0 7c0 1.105-0.895 2-2 2v0h-1zM14 13v2c0 1.105-0.895 2-2 2v0h-6l-3 3v-3h-1c-1.105 0-2-0.895-2-2v0-7c0-1.1 0.9-2 2-2h2v3c0 2.209 1.791 4 4 4v0h6z"></path>
</svg>
<svg id="icon-download" width="20" height="20" viewBox="0 0 20 20" x="288" y="0">
<path d="M13 8v-6h-6v6h-5l8 8 8-8h-5zM0 18h20v2h-20v-2z"></path>
</svg>
<svg id="icon-heart" width="20" height="20" viewBox="0 0 20 20" x="324" y="0">
<path d="M10 3.22l-0.61-0.6c-0.983-0.931-2.314-1.504-3.779-1.504-3.038 0-5.5 2.462-5.5 5.5 0 1.462 0.571 2.791 1.501 3.776l-0.002-0.003 8.39 8.39 8.39-8.4c0.928-0.983 1.499-2.312 1.499-3.774 0-3.038-2.462-5.5-5.5-5.5-1.465 0-2.796 0.573-3.782 1.506l0.003-0.002-0.61 0.61z"></path>
</svg>
<svg id="icon-home" width="20" height="20" viewBox="0 0 20 20" x="360" y="0">
<path d="M8 20h-5v-10h-3l10-10 10 10h-3v10h-5v-6h-4v6z"></path>
</svg>
<svg id="icon-location-current" width="20" height="20" viewBox="0 0 20 20" x="396" y="0">
<path d="M0 0l20 8-8 4-2 8z"></path>
</svg>
<svg id="icon-menu" width="20" height="20" viewBox="0 0 20 20" x="432" y="0">
<path d="M0 3h20v2h-20v-2zM0 9h20v2h-20v-2zM0 15h20v2h-20v-2z"></path>
</svg>
<svg id="icon-mic" width="20" height="20" viewBox="0 0 20 20" x="468" y="0">
<path d="M9 18v-1.060c-3.967-0.514-7-3.872-7-7.937 0-0.001 0-0.002 0-0.003v0h2c0 3.314 2.686 6 6 6s6-2.686 6-6v0h2c0 0.001 0 0.002 0 0.003 0 4.066-3.033 7.423-6.96 7.933l-0.040 0.004v1.060h3v2h-8v-2h3zM6 4c0-2.209 1.791-4 4-4s4 1.791 4 4v0 5c0 2.209-1.791 4-4 4s-4-1.791-4-4v0-5z"></path>
</svg>
<svg id="icon-notifications-outline" width="20" height="20" viewBox="0 0 20 20" x="504" y="0">
<path d="M6 8v7h8v-7c0-2.209-1.791-4-4-4s-4 1.791-4 4v0zM8.030 2.33c-0.016-0.095-0.025-0.204-0.025-0.315 0-1.105 0.895-2 2-2s2 0.895 2 2c0 0.111-0.009 0.22-0.027 0.327l0.002-0.012c2.361 0.843 4.020 3.060 4.020 5.664 0 0.002 0 0.004 0 0.006v-0 6l3 2v1h-18v-1l3-2v-6c0-0.001 0-0.002 0-0.003 0-2.608 1.664-4.827 3.988-5.654l0.042-0.013zM12 18c0 1.105-0.895 2-2 2s-2-0.895-2-2v0h4z"></path>
</svg>
<svg id="icon-phone" width="20" height="20" viewBox="0 0 20 20" x="540" y="0">
<path d="M20 18.35v0.65c0 0.552-0.448 1-1 1v0h-2c-9.389 0-17-7.611-17-17v0-2c0-0.552 0.448-1 1-1v0h4c0.552 0 1 0.448 1 1v0 4c0 0.56-0.31 1.31-0.7 1.7l-2.14 2.14c1.52 3.6 4.4 6.48 8 8l2.12-2.12c0.4-0.4 1.15-0.71 1.7-0.71h4.020c0.548 0.006 0.99 0.451 0.99 1 0 0 0 0 0 0v0 3.35z"></path>
</svg>
<svg id="icon-photo" width="20" height="20" viewBox="0 0 20 20" x="0" y="36">
<path d="M0 4c0-1.1 0.9-2 2-2h16c1.105 0 2 0.895 2 2v0 12c0 1.105-0.895 2-2 2v0h-16c-1.105 0-2-0.895-2-2v0-12zM11 13l-3-3-6 6h16l-5-5-2 2zM15 9c1.105 0 2-0.895 2-2s-0.895-2-2-2v0c-1.105 0-2 0.895-2 2s0.895 2 2 2v0z"></path>
</svg>
<svg id="icon-pin" width="20" height="20" viewBox="0 0 20 20" x="36" y="36">
<path d="M11 12h6v-1l-3-1v-8l3-1v-1h-14v1l3 1v8l-3 1v1h6v7l1 1 1-1v-7z"></path>
</svg>
<svg id="icon-queue" width="20" height="20" viewBox="0 0 20 20" x="72" y="36">
<path d="M0 2h20v4h-20v-4zM0 10h20v2h-20v-2zM0 16h20v2h-20v-2z"></path>
</svg>
<svg id="icon-search" width="20" height="20" viewBox="0 0 20 20" x="108" y="36">
<path d="M12.9 14.32c-1.34 1.049-3.050 1.682-4.908 1.682-4.418 0-8-3.582-8-8s3.582-8 8-8c4.418 0 8 3.582 8 8 0 1.858-0.633 3.567-1.695 4.925l0.013-0.018 5.35 5.33-1.42 1.42-5.33-5.34zM8 14c3.314 0 6-2.686 6-6s-2.686-6-6-6v0c-3.314 0-6 2.686-6 6s2.686 6 6 6v0z"></path>
</svg>
<svg id="icon-share-alt" width="20" height="20" viewBox="0 0 20 20" x="144" y="36">
<path d="M5.080 12.16c-0.539 0.527-1.276 0.852-2.090 0.852-1.651 0-2.99-1.339-2.99-2.99 0-0.008 0-0.015 0-0.023v0.001c0.001-1.656 1.344-2.998 3-2.998 0.808 0 1.542 0.319 2.081 0.839l-0.001-0.001 8.94-4.47c-0.015-0.113-0.024-0.243-0.024-0.375 0-1.657 1.343-3 3-3s3 1.343 3 3c0 1.657-1.343 3-3 3-0.806 0-1.538-0.318-2.077-0.836l0.001 0.001-8.94 4.47c0.014 0.111 0.023 0.24 0.023 0.37s-0.008 0.259-0.024 0.385l0.002-0.015 8.94 4.47c0.539-0.527 1.276-0.852 2.090-0.852 1.651 0 2.99 1.339 2.99 2.99 0 0.008-0 0.015-0 0.023v-0.001c-0.014 1.646-1.352 2.975-3 2.975-1.657 0-3-1.343-3-3 0-0.122 0.007-0.241 0.021-0.359l-0.001 0.014-8.94-4.47z"></path>
</svg>
<svg id="icon-trash" width="20" height="20" viewBox="0 0 20 20" x="180" y="36">
<path d="M6 2l2-2h4l2 2h4v2h-16v-2h4zM3 6h14l-1 14h-12l-1-14zM8 8v10h1v-10h-1zM11 8v10h1v-10h-1z"></path>
</svg>
<svg id="icon-tuning" width="20" height="20" viewBox="0 0 20 20" x="216" y="36">
<path d="M17 16v4h-2v-4h-2v-3h6v3h-2zM1 9h6v3h-6v-3zM7 5h6v3h-6v-3zM3 0h2v8h-2v-8zM15 0h2v12h-2v-12zM9 0h2v4h-2v-4zM3 12h2v8h-2v-8zM9 8h2v12h-2v-12z"></path>
</svg>
<svg id="icon-user-add" width="20" height="20" viewBox="0 0 20 20" x="252" y="36">
<path d="M2 6h-2v2h2v2h2v-2h2v-2h-2v-2h-2v2zM9 6c0-1.657 1.343-3 3-3s3 1.343 3 3v0 2c0 1.657-1.343 3-3 3s-3-1.343-3-3v0-2zM20 15.14c-2.287-1.345-5.038-2.14-7.975-2.14-0.009 0-0.018 0-0.026 0h0.001c-2.91 0-5.65 0.78-8 2.14v2.86h16v-2.86z"></path>
</svg>
</svg>
